<?xml version="1.0" encoding="UTF-8" standalone="no"?>
<svg
   xmlns:dc="http://purl.org/dc/elements/1.1/"
   xmlns:cc="http://creativecommons.org/ns#"
   xmlns:rdf="http://www.w3.org/1999/02/22-rdf-syntax-ns#"
   xmlns:svg="http://www.w3.org/2000/svg"
   xmlns="http://www.w3.org/2000/svg"
   xmlns:sodipodi="http://sodipodi.sourceforge.net/DTD/sodipodi-0.dtd"
   xmlns:inkscape="http://www.inkscape.org/namespaces/inkscape"
   viewBox="0 0 17 17.223301"
   version="1.1"
   id="svg32"
   sodipodi:docname="insert.svg"
   width="17"
   height="17.223301"
   inkscape:version="0.92.2 5c3e80d, 2017-08-06">
  <metadata
     id="metadata38">
    <rdf:RDF>
      <cc:Work
         rdf:about="">
        <dc:format>image/svg+xml</dc:format>
        <dc:type
           rdf:resource="http://purl.org/dc/dcmitype/StillImage" />
        <dc:title></dc:title>
      </cc:Work>
    </rdf:RDF>
  </metadata>
  <defs
     id="defs36" />
  <sodipodi:namedview
     pagecolor="#ffffff"
     bordercolor="#666666"
     borderopacity="1"
     objecttolerance="10"
     gridtolerance="10"
     guidetolerance="10"
     inkscape:pageopacity="0"
     inkscape:pageshadow="2"
     inkscape:window-width="1440"
     inkscape:window-height="809"
     id="namedview34"
     showgrid="false"
     fit-margin-top="0"
     fit-margin-left="0"
     fit-margin-right="0"
     fit-margin-bottom="0"
     inkscape:zoom="1.8929167"
     inkscape:cx="13.536464"
     inkscape:cy="-32.2887"
     inkscape:window-x="0"
     inkscape:window-y="1"
     inkscape:window-maximized="1"
     inkscape:current-layer="svg32" />
  <g
     transform="matrix(0.05722065,0,0,0.05722065,-0.00778201,-3.3600538)"
     id="g30">
    <path
       d="m 32.905,59.221 h 190.17 a 32.269,32.269 0 0 1 32.269,32.269 v 235.46 a 32.269,32.269 0 0 1 -32.269,32.269 H 32.905 A 32.269,32.269 0 0 1 0.636,326.95 V 91.49 A 32.269,32.269 0 0 1 32.905,59.221"
       id="path2"
       inkscape:connector-curvature="0"
       style="fill:#ffffff;stroke:#000000" />
    <g
       transform="matrix(4.0336,0,0,4.0336,-4505.1,-1563.7)"
       id="g10"
       style="fill:none;stroke:#808080;stroke-width:2;stroke-linecap:round">
      <path
         d="m 1123.6,419.35 50.082,0.36291"
         id="path4"
         inkscape:connector-curvature="0" />
      <path
         d="m 1123.6,459.35 11.522,0.36291"
         id="path6"
         inkscape:connector-curvature="0" />
      <path
         d="m 1123.6,439.35 50.082,0.36291"
         id="path8"
         inkscape:connector-curvature="0" />
    </g>
    <g
       transform="matrix(2.8522,2.8522,-2.8522,2.8522,-1939.1,-4787.1)"
       id="g28">
      <path
         transform="translate(515.34,307.49)"
         d="m 737.31,213.03 h -17.438 l 8.7188,16 8.7188,-16 z"
         id="path12"
         inkscape:connector-curvature="0"
         style="fill:#d38d5f" />
      <path
         transform="translate(515.34,307.49)"
         d="m 737.31,168.03 h -17.438 v 45 h 17.438 z"
         id="path14"
         inkscape:connector-curvature="0"
         style="fill:#ffcc00" />
      <path
         transform="translate(515.34,307.49)"
         d="m 728.59,157.25 c -6.2393,0 -8.7188,4 -8.7188,4 v 6.7812 h 17.438 V 161.25 c 0,0 -2.4794,-4 -8.7188,-4 z"
         id="path16"
         inkscape:connector-curvature="0"
         style="fill:#800000" />
      <path
         transform="translate(515.34,307.49)"
         d="m 730.87,224.91 h -4.4891 l 2.215,4.1191 z"
         id="path18"
         inkscape:connector-curvature="0"
         style="fill:#4d4d4d" />
      <path
         d="m 1238.5,475.53 h 5 v 45 h -5 z"
         id="path20"
         inkscape:connector-curvature="0" />
      <path
         d="m 1248.5,475.53 h 2 v 45 h -2 z"
         id="path22"
         inkscape:connector-curvature="0" />
      <path
         d="m 1235.2,469.51 h 17.437 v 1 H 1235.2 Z"
         id="path24"
         inkscape:connector-curvature="0"
         style="fill:#ffffff" />
      <path
         d="m 1237.2,520.53 h 4.4426 l 2.5503,11.881 h -1.357 z"
         id="path26"
         inkscape:connector-curvature="0"
         style="fill:#deaa87" />
    </g>
  </g>
</svg>
