<?xml version="1.0" encoding="UTF-8" standalone="no"?>
<svg
   xmlns:dc="http://purl.org/dc/elements/1.1/"
   xmlns:cc="http://creativecommons.org/ns#"
   xmlns:rdf="http://www.w3.org/1999/02/22-rdf-syntax-ns#"
   xmlns:svg="http://www.w3.org/2000/svg"
   xmlns="http://www.w3.org/2000/svg"
   xmlns:sodipodi="http://sodipodi.sourceforge.net/DTD/sodipodi-0.dtd"
   xmlns:inkscape="http://www.inkscape.org/namespaces/inkscape"
   viewBox="0 0 17 16.886393"
   version="1.1"
   id="svg6"
   sodipodi:docname="insert.svg"
   width="17"
   height="16.886393"
   inkscape:version="0.92.2 5c3e80d, 2017-08-06">
  <metadata
     id="metadata12">
    <rdf:RDF>
      <cc:Work
         rdf:about="">
        <dc:format>image/svg+xml</dc:format>
        <dc:type
           rdf:resource="http://purl.org/dc/dcmitype/StillImage" />
        <dc:title></dc:title>
      </cc:Work>
    </rdf:RDF>
  </metadata>
  <defs
     id="defs10" />
  <sodipodi:namedview
     pagecolor="#ffffff"
     bordercolor="#666666"
     borderopacity="1"
     objecttolerance="10"
     gridtolerance="10"
     guidetolerance="10"
     inkscape:pageopacity="0"
     inkscape:pageshadow="2"
     inkscape:window-width="1440"
     inkscape:window-height="809"
     id="namedview8"
     showgrid="false"
     fit-margin-top="0"
     fit-margin-left="0"
     fit-margin-right="0"
     fit-margin-bottom="0"
     inkscape:zoom="6.6924711"
     inkscape:cx="30.370379"
     inkscape:cy="16.338713"
     inkscape:window-x="0"
     inkscape:window-y="1"
     inkscape:window-maximized="1"
     inkscape:current-layer="svg6" />
  <path
     d="M 1.1242332,0.49308521 H 15.875765 A 0.63114906,0.63114906 0 0 1 16.506914,1.1242342 V 15.762159 a 0.63114906,0.63114906 0 0 1 -0.631149,0.631149 H 1.1242332 A 0.63114906,0.63114906 0 0 1 0.49308521,15.762159 V 1.1242342 A 0.63114906,0.63114906 0 0 1 1.1242332,0.49308521"
     id="path2"
     inkscape:connector-curvature="0"
     style="fill:#b3b3b3;fill-rule:evenodd;stroke:#333333;stroke-width:0.98617041;stroke-linejoin:round" />
  <path
     d="m 6.9994112,6.9426402 v -3.377279 c 0,-0.472478 0.129193,-0.856343 0.387588,-1.151658 0.258383,-0.302677 0.627489,-0.454017 1.107352,-0.454017 0.479862,0 0.848958,0.15134 1.107351,0.454017 0.265764,0.295296 0.3986328,0.67918 0.3986328,1.151658 v 3.377279 h 3.333098 c 0.487248,0 0.871112,0.132882 1.151658,0.398634 0.287912,0.258383 0.431864,0.623796 0.431864,1.096274 0,0.479863 -0.143956,0.85265 -0.431864,1.118427 -0.28053,0.265765 -0.66441,0.398634 -1.151658,0.398634 h -3.333098 v 3.3662328 c 0,0.479863 -0.1328818,0.86742 -0.3986328,1.162735 -0.265752,0.295315 -0.634873,0.44294 -1.107351,0.44294 -0.472479,0 -0.841574,-0.147647 -1.107352,-0.44294 -0.258383,-0.295296 -0.387588,-0.682872 -0.387588,-1.162735 V 9.9546092 h -3.333099 c -0.472477,0 -0.856342,-0.143955 -1.151657,-0.431863 -0.287911,-0.295296 -0.431864,-0.657026 -0.431864,-1.085198 0,-0.472478 0.140267,-0.837913 0.420788,-1.096274 0.287914,-0.265765 0.675487,-0.398634 1.162733,-0.398634 z"
     id="path4"
     inkscape:connector-curvature="0"
     style="fill:#333333;stroke-width:0.31557453" />
</svg>
