<?xml version="1.0" encoding="UTF-8" standalone="no"?>
<svg
   xmlns:dc="http://purl.org/dc/elements/1.1/"
   xmlns:cc="http://creativecommons.org/ns#"
   xmlns:rdf="http://www.w3.org/1999/02/22-rdf-syntax-ns#"
   xmlns:svg="http://www.w3.org/2000/svg"
   xmlns="http://www.w3.org/2000/svg"
   xmlns:sodipodi="http://sodipodi.sourceforge.net/DTD/sodipodi-0.dtd"
   xmlns:inkscape="http://www.inkscape.org/namespaces/inkscape"
   viewBox="0 0 17 17.143894"
   version="1.1"
   id="svg22"
   sodipodi:docname="remove.svg"
   width="17"
   height="17.143894"
   inkscape:version="0.92.2 5c3e80d, 2017-08-06">
  <metadata
     id="metadata26">
    <rdf:RDF>
      <cc:Work
         rdf:about="">
        <dc:format>image/svg+xml</dc:format>
        <dc:type
           rdf:resource="http://purl.org/dc/dcmitype/StillImage" />
        <dc:title></dc:title>
      </cc:Work>
    </rdf:RDF>
  </metadata>
  <sodipodi:namedview
     pagecolor="#ffffff"
     bordercolor="#666666"
     borderopacity="1"
     objecttolerance="10"
     gridtolerance="10"
     guidetolerance="10"
     inkscape:pageopacity="0"
     inkscape:pageshadow="2"
     inkscape:window-width="1440"
     inkscape:window-height="809"
     id="namedview24"
     showgrid="false"
     fit-margin-top="-4.2"
     fit-margin-left="0"
     fit-margin-right="0"
     fit-margin-bottom="0"
     inkscape:zoom="4.4365234"
     inkscape:cx="8.5767125"
     inkscape:cy="-7.1508587"
     inkscape:window-x="0"
     inkscape:window-y="1"
     inkscape:window-maximized="1"
     inkscape:current-layer="svg22" />
  <defs
     id="defs12">
    <linearGradient
       id="b"
       x1="302.73999"
       x2="311.26999"
       y1="377.95001"
       y2="390.78"
       gradientTransform="matrix(0.62650678,0,0,0.59116592,-189.63667,-221.50682)"
       gradientUnits="userSpaceOnUse">
      <stop
         stop-color="#fff"
         offset="0"
         id="stop2" />
      <stop
         stop-color="#fff"
         stop-opacity="0"
         offset="1"
         id="stop4" />
    </linearGradient>
    <linearGradient
       id="a"
       x1="314.57001"
       x2="332.01999"
       y1="369.98001"
       y2="387.44"
       gradientUnits="userSpaceOnUse"
       gradientTransform="matrix(0.55566567,0,0,0.55566567,-172.39787,-201.49228)">
      <stop
         stop-color="#e12b1c"
         offset="0"
         id="stop7" />
      <stop
         stop-color="#980b00"
         offset="1"
         id="stop9" />
    </linearGradient>
  </defs>
  <path
     d="m 16.999696,8.5719473 a 8.5,8.5 0 1 1 -16.9993915,0 8.5,8.5 0 1 1 16.9993915,0 z"
     id="path14"
     inkscape:connector-curvature="0"
     style="fill:#b4281c;stroke-width:0.60857737" />
  <path
     d="m 16.272858,8.5826873 a 7.7609825,7.7609825 0 1 1 -15.5214085,0 7.7609825,7.7609825 0 1 1 15.5214085,0 z"
     id="path16"
     style="fill:url(#a);stroke:#ffffff;stroke-width:0.18054689"
     inkscape:connector-curvature="0" />
  <path
     d="m 8.4980805,0.81754725 c -4.283934,0 -7.759451,3.47552005 -7.759451,7.75946005 0,2.0582897 0.83996,3.8975797 2.149006,5.2870497 0.680096,-5.6172197 5.421058,-9.9845597 11.2207575,-9.9845597 0.156384,0 0.301586,0.0318 0.456443,0.038 -1.419213,-1.8458 -3.56025,-3.09993005 -6.0667815,-3.09993005 z"
     id="path18"
     style="fill:url(#b);stroke-width:0.13281046"
     inkscape:connector-curvature="0" />
  <path
     d="m 3.5390715,9.7160673 c -8e-6,0.10115 0.08904,0.17116 0.190184,0.17116 h 9.5470805 c 0.101146,0 0.190171,-0.07 0.190184,-0.17116 v -2.28222 c 6e-6,-0.10115 -0.08903,-0.19018 -0.190184,-0.19018 H 3.7292555 c -0.10115,-1e-5 -0.190184,0.089 -0.190184,0.19018 v 2.28222 h -7e-6 z"
     id="path20"
     inkscape:connector-curvature="0"
     style="fill:#ffffff;stroke-width:0.13281046" />
</svg>
